<svg width="504.297" height="73.098" viewBox="0 0 504.297 73.098" xmlns="http://www.w3.org/2000/svg"><g id="svgGroup" stroke-linecap="round" fill-rule="evenodd" font-size="9pt" stroke="#000" stroke-width="0.25mm" fill="#e00d0d" style="stroke:#000;stroke-width:0.25mm;fill:#e00d0d"><path d="M 137.647 1.026 L 160.157 1.026 L 176.026 50.489 L 191.846 1.026 L 214.405 1.026 L 214.405 72.12 L 197.217 72.12 L 197.217 55.518 L 198.878 21.534 L 181.69 72.12 L 170.362 72.12 L 153.126 21.485 L 154.786 55.518 L 154.786 72.12 L 137.647 72.12 L 137.647 1.026 Z M 59.571 34.132 L 59.571 63.331 Q 56.282 66.985 50.461 69.458 A 42.132 42.132 0 0 1 47.999 70.411 A 47.452 47.452 0 0 1 36.301 72.883 A 57.512 57.512 0 0 1 31.299 73.097 A 37.039 37.039 0 0 1 21.615 71.895 A 27.258 27.258 0 0 1 8.985 64.552 Q 0.635 56.007 0.049 40.772 L 0.001 34.62 A 50.209 50.209 0 0 1 0.789 25.508 A 37.236 37.236 0 0 1 3.712 16.285 A 28.862 28.862 0 0 1 9.555 7.944 A 26.591 26.591 0 0 1 14.332 4.224 A 28.821 28.821 0 0 1 26.451 0.203 A 36.238 36.238 0 0 1 30.323 0.001 A 46.669 46.669 0 0 1 38.4 0.655 Q 42.803 1.43 46.31 3.122 A 22.76 22.76 0 0 1 50.953 6.08 A 22.285 22.285 0 0 1 57.633 15.71 Q 59.045 19.508 59.522 24.22 L 43.018 24.22 A 22.82 22.82 0 0 0 42.321 21.003 Q 41.839 19.395 41.14 18.147 A 8.96 8.96 0 0 0 39.21 15.724 Q 36.28 13.184 30.909 13.184 A 12.052 12.052 0 0 0 26.074 14.122 Q 23.008 15.449 20.948 18.653 A 19.267 19.267 0 0 0 18.747 23.584 Q 17.413 28.05 17.383 34.278 L 17.383 38.575 Q 17.383 49.22 21.021 54.566 A 11.794 11.794 0 0 0 28.826 59.579 A 18.815 18.815 0 0 0 32.471 59.913 A 23.899 23.899 0 0 0 36.142 59.65 Q 40.132 59.029 42.432 56.934 L 42.432 45.899 L 30.518 45.899 L 30.518 34.132 L 59.571 34.132 Z M 269.385 29.249 L 269.385 41.993 L 242.432 41.993 L 242.432 58.936 L 274.268 58.936 L 274.268 72.12 L 225.294 72.12 L 225.294 1.026 L 274.366 1.026 L 274.366 14.259 L 242.432 14.259 L 242.432 29.249 L 269.385 29.249 Z M 460.938 1.026 L 472.559 24.659 L 484.18 1.026 L 503.76 1.026 L 483.887 36.28 L 504.297 72.12 L 484.522 72.12 L 472.559 48.048 L 460.596 72.12 L 440.87 72.12 L 461.231 36.28 L 441.407 1.026 L 460.938 1.026 Z M 350.928 30.616 L 350.928 43.8 L 323.292 43.8 L 323.292 72.12 L 306.153 72.12 L 306.153 1.026 L 353.712 1.026 L 353.712 14.259 L 323.292 14.259 L 323.292 30.616 L 350.928 30.616 Z M 114.063 72.12 L 109.913 58.839 L 86.426 58.839 L 82.325 72.12 L 64.014 72.12 L 90.088 1.026 L 106.202 1.026 L 132.471 72.12 L 114.063 72.12 Z M 377.979 1.026 L 377.979 58.936 L 407.813 58.936 L 407.813 72.12 L 360.84 72.12 L 360.84 1.026 L 377.979 1.026 Z M 433.301 1.026 L 433.301 72.12 L 416.212 72.12 L 416.212 1.026 L 433.301 1.026 Z M 98.145 20.948 L 90.528 45.606 L 105.811 45.606 L 98.145 20.948 Z" vector-effect="non-scaling-stroke"/></g></svg>